# xmcd CD database file
# Copyright (C) 1997 Ti Kan
# 
# Track frame offsets:
#     187
#     19542
#     37617
#     55975
#     77655
#     93787
#     104277
#     122485
#     143587
#     159472
# 
# Disc length: 2419 seconds
# 
# Revision: 1
# Processed by: cddbd v1.4b41PL1 Copyright (c) Steve Scherf et al.
# Submitted via: DiscPlay 4.0.4
# 
DISCID=6609710a
DTITLE=Tanya Tucker - TNT
DYEAR=1900
DGENRE=
TTITLE0=Lover Goodbye
TTITLE1=I'm The Singer, You're The Song
TTITLE2=Not Fade Away
TTITLE3=Angel From Montgomery
TTITLE4=Heartbreak Hotel
TTITLE5=Brown Eyed Handsome Man
TTITLE6=The River And The Wind
TTITLE7=If You Feel It
TTITLE8=It's Nice To Be With You
TTITLE9=Texas (When I Die)
EXTD=
EXTT0=
EXTT1=
EXTT2=
EXTT3=
EXTT4=
EXTT5=
EXTT6=
EXTT7=
EXTT8=
EXTT9=
PLAYORDER=
